<svg width="158" height="192" viewBox="0 0 158 192" fill="none" xmlns="http://www.w3.org/2000/svg">
<path d="M33.5 80.0115C29.1 82.4115 26.6667 85.3448 26 86.5115C57.3333 75.1781 127.4 49.7115 157 38.5115C158 37.0115 159 33.0115 154 31.0115C137 32.0115 39 77.0115 33.5 80.0115Z" fill="black"/>
<path d="M26 68.0114C20 72.4114 14.5 79.8448 12.5 83.0114C47 59.3448 117.8 10.6114 125 5.01145C124.6 -1.38856 118.833 -0.321888 116 1.01145C88.5 21.5114 32 63.6114 26 68.0114Z" fill="black"/>
<path d="M155 111.511H0C0 127.511 3.5 144.011 15 163.511C24.2 179.111 38.5 188.345 44.5 191.011H113C122 186.5 133 177.5 141 163.511C148.926 149.652 154.878 124.323 155 111.511Z" fill="black"/>
<path d="M34 100.511L15 105.511L15.5 108.512C21.1667 107.512 33.4 105.412 37 105.012C44 93.5115 52.5 96.0115 53.5 96.5115C54.5 97.0115 54.5 98.0115 54 103.012C57 103.512 62 95.5115 64.5 93.0115C67 90.5115 68.5 90.5115 74 89.5115C79.5 88.5115 83.5 91.0115 84.5 93.5115C85.3 95.5115 83.1667 98.6782 82 100.012C85.3333 98.3448 93.3 94.9115 98.5 94.5115C105 94.0115 111.5 103.512 112 105.512C115.2 104.312 128.333 106.012 134.5 107.012C134.667 106.845 135.2 106.212 136 105.012C134 101.512 122.5 99.5115 115 99.5115C105 85.0115 94 90.0115 90.5 91.0115C88.9 89.0115 82.5 85.8448 79.5 84.5115C76.5 83.1782 70.5 83.6782 68.5 84.5115C66.5 85.3448 61.5 87.9114 57.5 91.5114C45.1 89.1114 36.6667 96.5114 34 100.511Z" fill="black"/>
</svg>
