<svg width="322" height="315" viewBox="0 0 322 315" fill="none" xmlns="http://www.w3.org/2000/svg">
<rect width="322" height="315" fill="url(#paint0_linear_439_470)"/>
<path d="M115.5 141.011C111.1 143.411 108.667 146.345 108 147.511C139.333 136.178 209.4 110.711 239 99.5115C240 98.0115 241 94.0115 236 92.0115C219 93.0115 121 138.011 115.5 141.011Z" fill="white"/>
<path d="M108 129.011C102 133.411 96.5 140.845 94.5 144.011C129 120.345 199.8 71.6114 207 66.0114C206.6 59.6114 200.833 60.6781 198 62.0114C170.5 82.5114 114 124.611 108 129.011Z" fill="white"/>
<path d="M237 172.511H82C82 188.511 85.5 205.011 97 224.511C106.2 240.111 120.5 249.345 126.5 252.011H195C204 247.5 215 238.5 223 224.511C230.926 210.652 236.878 185.323 237 172.511Z" fill="white"/>
<path d="M116 161.511L97 166.511L97.5 169.512C103.167 168.512 115.4 166.412 119 166.012C126 154.512 134.5 157.012 135.5 157.512C136.5 158.012 136.5 159.012 136 164.012C139 164.512 144 156.512 146.5 154.012C149 151.512 150.5 151.512 156 150.512C161.5 149.512 165.5 152.012 166.5 154.512C167.3 156.512 165.167 159.678 164 161.012C167.333 159.345 175.3 155.912 180.5 155.512C187 155.012 193.5 164.512 194 166.512C197.2 165.312 210.333 167.012 216.5 168.012C216.667 167.845 217.2 167.212 218 166.012C216 162.512 204.5 160.512 197 160.512C187 146.012 176 151.012 172.5 152.012C170.9 150.012 164.5 146.845 161.5 145.512C158.5 144.178 152.5 144.678 150.5 145.512C148.5 146.345 143.5 148.911 139.5 152.511C127.1 150.111 118.667 157.511 116 161.511Z" fill="white"/>
<defs>
<linearGradient id="paint0_linear_439_470" x1="161" y1="0" x2="161" y2="315" gradientUnits="userSpaceOnUse">
<stop stop-color="#3427A9"/>
<stop offset="1" stop-color="#D168E3"/>
</linearGradient>
</defs>
</svg>
